# xmcd
#
# Track frame offsets:
#	150
#	24656
#	44306
#	85223
#	108227
#	127494
#	141404
#	160627
#	189180
#	202940
#	232739
#	255000
#	266227
#	288758
#	303795
#	324104
#	342381
#
# Disc length: 4799 seconds
#
# Revision: 1
# Processed by: cddbd v1.4PL0 Copyright (c) Steve Scherf et al.
# Submitted via: EasyCDDAExtractor 5.0.6
#
DISCID=de12bd11
DTITLE=JIMI HENDRIX - Rescued From Randall's Island 
DYEAR=2003
DGENRE=Blues
TTITLE0=Stone Free
TTITLE1=Message To Love
TTITLE2=Lover Man
TTITLE3=Foxy Lady
TTITLE4=Ezy Ryder
TTITLE5=Star Spangled Banner
TTITLE6=Purple Haze
TTITLE7=VooDoo Chile
TTITLE8=The Wind Cries Mary
TTITLE9=Wild Thing
TTITLE10=Hear My Train A-Comin'
TTITLE11=Hear My Train A-Comin'
TTITLE12=Little Drummer Boy
TTITLE13=Freedom
TTITLE14=My Friend
TTITLE15=Drifting
TTITLE16=Ezy Ryder
EXTD=
EXTT0=
EXTT1=
EXTT2=
EXTT3=
EXTT4=
EXTT5=
EXTT6=
EXTT7=
EXTT8=
EXTT9=
EXTT10=
EXTT11=
EXTT12=
EXTT13=
EXTT14=
EXTT15=
EXTT16=
PLAYORDER=
